<svg width="30" height="30" viewBox="0 0 30 30" fill="none" xmlns="http://www.w3.org/2000/svg">
<path d="M20.7231 15L28.0813 7.64177C29.7165 6.00661 29.7165 3.55386 28.0813 1.9187C26.4462 0.283531 23.9934 0.283531 22.3583 1.9187L15 9.27694L7.64177 1.9187C6.00661 0.283531 3.55386 0.283531 1.9187 1.9187C0.283531 3.55386 0.283531 6.00661 1.9187 7.64177L9.27694 15L1.9187 22.3583C0.283531 23.9934 0.283531 26.4462 1.9187 28.0813C2.73628 28.8989 3.75826 29.3077 4.78023 29.3077C5.80221 29.3077 6.82419 28.8989 7.64177 28.0813L15 20.7231L22.3583 28.0813C23.1758 28.8989 24.1978 29.3077 25.2198 29.3077C26.2418 29.3077 27.2638 28.8989 28.0813 28.0813C29.7165 26.4462 29.7165 23.9934 28.0813 22.3583L20.7231 15Z" fill="#FE696F"/>
</svg>
