<svg width="33" height="32" viewBox="0 0 33 32" fill="none" xmlns="http://www.w3.org/2000/svg">
<path d="M16.5557 31.6781C16.3082 31.6781 16.0632 31.5896 15.8662 31.4101C15.2778 30.8896 1.42465 18.5189 0.209813 10.8919C-0.335725 7.43885 0.179505 4.72739 1.74288 2.83561C3.08146 1.21185 5.13733 0.319305 7.53164 0.319305C7.73874 0.319305 7.94837 0.32451 8.15547 0.340123C8.30196 0.332316 8.44592 0.329714 8.58988 0.329714C11.2368 0.329714 14.5075 1.52932 16.4421 6.62958C17.5281 3.51738 19.7532 0.340123 24.8474 0.340123C27.714 0.340123 29.9568 1.23007 31.3408 2.90847C32.8486 4.73259 33.3285 7.41804 32.7779 10.8919C31.5681 18.5137 17.8312 30.887 17.2478 31.4075C17.0508 31.5896 16.8033 31.6781 16.5557 31.6781Z" fill="#4ECE93"/>
</svg>
