<svg width="10" height="10" viewBox="0 0 10 10" fill="none" xmlns="http://www.w3.org/2000/svg">
<path d="M5.01644 9.61121C4.94144 9.61121 4.8672 9.58518 4.8075 9.53238C4.62918 9.37931 0.431259 5.74086 0.0631275 3.49763C-0.102187 2.48202 0.0539434 1.68453 0.527692 1.12812C0.933325 0.650544 1.55632 0.388031 2.28186 0.388031C2.34462 0.388031 2.40815 0.389562 2.4709 0.394154C2.51529 0.391858 2.55892 0.391092 2.60254 0.391092C3.40462 0.391092 4.39575 0.743916 4.982 2.24399C5.3111 1.32864 5.98537 0.394154 7.52907 0.394154C8.39774 0.394154 9.07736 0.655902 9.49677 1.14955C9.95368 1.68606 10.0991 2.47589 9.93225 3.49763C9.56565 5.73933 5.40294 9.37854 5.22615 9.53161C5.16645 9.58519 5.09144 9.61121 5.01644 9.61121Z" fill="white"/>
</svg>
