<svg width="117" height="117" viewBox="0 0 117 117" fill="none" xmlns="http://www.w3.org/2000/svg">
<path d="M109.339 34.7919C106.138 32.7675 97.7835 28.2305 88.6897 29.2803C87.8688 28.6071 86.9945 28.1376 86.5391 27.9143C85.5592 27.4344 83.6845 26.6948 82.1402 27.1342C80.9074 27.4846 80.1505 28.4846 80.1156 29.8094C80.1066 30.1512 80.1222 30.4878 80.1556 30.8175C76.7351 33.7761 69.3218 38.3956 67.8815 38.5993C64.687 38.5929 59.7817 37.5613 54.5893 36.4698C47.7806 35.0384 40.0632 33.4159 33.3548 33.4159C19.7084 33.4157 11.0001 46.6554 11.0001 55.77C11.0001 60.0321 12.8619 63.0284 14.3578 65.4356C15.3375 67.0124 16.1838 68.3739 16.1838 69.5929C16.1838 71.8956 13.3259 75.3824 11.5253 77.0381C11.1312 77.3994 10.9406 77.932 11.0164 78.4611L12.7443 90.5563C12.8095 91.0126 13.066 91.4194 13.4496 91.6751L18.6332 95.1307C18.8992 95.3081 19.2121 95.4028 19.5316 95.4028H22.9873C23.8819 95.4028 24.6073 94.6776 24.6073 93.7829C24.6073 92.8883 23.8821 92.1629 22.9873 92.1629H22.057C21.5301 91.237 20.5033 88.5887 21.0705 82.5615C21.3992 82.3852 21.8611 82.1521 22.2873 81.9377C24.9559 80.5935 29.5774 78.2636 33.4688 74.6624C33.538 74.6576 33.6075 74.6498 33.6772 74.6355C34.9825 74.3703 38.1444 74.5822 41.4921 74.8068C44.4746 75.0068 47.7744 75.2279 50.9533 75.2279C54.5664 75.2279 58.0229 74.9417 60.6786 74.0138L61.1276 75.1363C61.4086 79.3269 62.7418 85.2229 63.8233 89.4735C64.4526 91.9471 66.6802 93.6749 69.2397 93.6749H73.0952C73.8673 93.6749 74.5322 93.1299 74.6835 92.3727C74.8349 91.6157 74.4308 90.8567 73.7181 90.5598C73.6935 90.5495 71.2591 89.4157 71.2591 85.1436C71.2591 81.5076 72.0614 74.8642 72.54 71.2277C72.6933 70.062 73.4495 69.0978 74.5132 68.7114C76.0701 68.146 79.2724 66.6538 83.2263 63.0128C87.0822 59.4622 90.5492 54.8828 93.5412 49.3996C94.1996 49.4453 94.9149 49.4705 95.701 49.4705C105.852 49.4705 111 47.5207 111 43.675V37.8124C111.001 36.5792 110.379 35.4501 109.339 34.7919ZM95.7018 46.2306C91.0182 46.2306 89.5731 45.3933 87.9023 44.116C87.1922 43.5726 86.1752 43.708 85.6316 44.4187C85.0883 45.1293 85.2236 46.1459 85.9344 46.6894C87.0773 47.5635 88.2607 48.3506 90.1346 48.8625C82.8238 61.7098 74.9618 65.102 73.4077 65.6665C71.2032 66.4671 69.6399 68.4362 69.3282 70.8052C68.7313 75.3437 68.0196 81.515 68.0196 85.144C68.0196 87.4518 68.562 89.1729 69.2683 90.4356H69.2397C68.163 90.4356 67.2268 89.7116 66.963 88.6752C66.0872 85.2336 64.5829 78.8392 64.3452 74.6843C64.3352 74.5095 64.2969 74.3376 64.2321 74.1749L60.7764 65.5356C60.4442 64.7052 59.5018 64.3005 58.6707 64.6333C57.8401 64.9655 57.4362 65.9083 57.7684 66.739L59.4739 71.0025C55.1037 72.472 47.4244 71.9581 41.7087 71.5747C39.7575 71.4441 38.013 71.3273 36.5399 71.2878C37.1685 70.4503 37.7427 69.5638 38.2413 68.6237C38.6603 67.8333 38.3593 66.8528 37.5687 66.4339C36.7784 66.0147 35.7977 66.3159 35.3788 67.1065C32.0444 73.3966 24.4699 77.2115 20.8299 79.0449C18.7414 80.0969 18.0377 80.4512 17.9213 81.5113C17.4437 85.8561 17.69 88.8664 18.1736 90.9313L15.849 89.3817L14.3406 78.8226C15.865 77.292 19.4232 73.3193 19.4232 69.5935C19.4232 67.4499 18.2992 65.6411 17.1094 63.7262C15.6986 61.4559 14.2396 59.1081 14.2396 55.7705C14.2396 51.8186 16.2441 47.0584 19.4711 43.348C23.2242 39.0327 28.1547 36.656 33.3542 36.656C39.7257 36.656 47.2677 38.2417 53.9221 39.6406C59.534 40.8204 64.3809 41.8394 67.9116 41.8394C68.4181 41.8394 69.7634 41.8394 75.3316 38.2767C77.4378 36.9292 79.5451 35.4415 81.1281 34.1999C81.6205 35.2552 82.1156 35.9384 82.1572 35.9954C82.4748 36.4273 82.9658 36.656 83.4635 36.656C83.7965 36.656 84.1328 36.5536 84.4219 36.3411C85.1426 35.811 85.2973 34.7974 84.7674 34.0765C84.7535 34.0577 83.458 32.2413 83.3594 30.237C84.3732 30.3364 86.5955 31.4067 87.2908 32.4681C87.7812 33.2163 88.785 33.4253 89.5336 32.9352C89.7457 32.7964 89.9127 32.6153 90.0344 32.4114C97.9799 31.8972 105.426 36.1511 107.607 37.5304C107.706 37.5931 107.76 37.6935 107.76 37.8128V43.6752H107.76C107.761 44.5088 104.813 46.2306 95.7018 46.2306Z" fill="#121212"/>
<circle cx="58.5" cy="58.5" r="57" stroke="#121212" stroke-width="3"/>
</svg>
