<svg width="40" height="40" viewBox="0 0 40 40" fill="none" xmlns="http://www.w3.org/2000/svg">
<path d="M18.75 37.5009H2.50003V2.50094H18.75C19.44 2.50094 19.9999 1.94089 19.9999 1.25097C19.9999 0.561049 19.4399 0.00100708 18.75 0.00100708H1.24996C0.560042 0.00100708 0 0.560945 0 1.25097V38.7508C0 39.4409 0.560042 40.0008 1.24996 40.0008H18.7499C19.4399 40.0008 19.9998 39.4408 19.9998 38.7508C19.9999 38.0608 19.4399 37.5009 18.75 37.5009Z" fill="white"/>
<path d="M39.6374 19.1275L31.0124 10.3788C30.5236 9.88501 29.7324 9.88625 29.2449 10.3788C28.7561 10.8713 28.7561 11.6712 29.2449 12.1637L35.7449 18.7575H10.0037C9.31372 18.7575 8.75378 19.3225 8.75378 20.02C8.75378 20.7175 9.31383 21.2825 10.0037 21.2825H35.7449L29.2449 27.8763C28.7561 28.37 28.7561 29.1687 29.2449 29.6612C29.7337 30.155 30.5249 30.155 31.0124 29.6612L39.6361 20.9125C40.1186 20.4263 40.1236 19.6125 39.6374 19.1275Z" fill="white"/>
</svg>
